<?xml version="1.0" standalone="no"?>
<!DOCTYPE svg PUBLIC "-//W3C//DTD SVG 20010904//EN"
 "http://www.w3.org/TR/2001/REC-SVG-20010904/DTD/svg10.dtd">
<svg version="1.0" xmlns="http://www.w3.org/2000/svg"
 width="180.000000pt" height="180.000000pt" viewBox="0 0 180.000000 180.000000"
 preserveAspectRatio="xMidYMid meet">
<metadata>
Created by potrace 1.14, written by Peter Selinger 2001-2017
</metadata>
<g transform="translate(0.000000,180.000000) scale(0.100000,-0.100000)"
fill="#000000" stroke="none">
<path d="M731 1785 c-335 -73 -583 -293 -689 -610 -32 -93 -37 -139 -35 -290
1 -119 5 -153 28 -229 93 -315 319 -536 640 -627 112 -32 333 -32 448 -1 141
39 273 112 401 222 46 41 146 179 183 254 69 143 88 234 87 406 -4 428 -294
779 -725 876 -58 13 -276 12 -338 -1z"/>
</g>
</svg>
